<?xml version="1.0" encoding="utf-8"?>
<!-- Generator: Adobe Illustrator 22.1.0, SVG Export Plug-In . SVG Version: 6.00 Build 0)  -->
<svg version="1.1" id="Layer_1" xmlns="http://www.w3.org/2000/svg" xmlns:xlink="http://www.w3.org/1999/xlink" x="0px" y="0px"
	 viewBox="0 0 700 700" style="enable-background:new 0 0 700 700;" xml:space="preserve">
<style type="text/css">
	.st0{fill:#D93F42;}
</style>
<g>
	<g>
		<path class="st0" d="M86.4,383.3c13.5-112.5,57.1-215.7,122.4-301.5C220.3,66.6,232.5,52,245.4,38c28.2-23.7,64.6-38,104.3-38
			c18.1,0,35.4,3,51.6,8.4c19.2,6.4,36.7,16.4,52,29c34.4,28.5,55.4,71.1,58.6,118.8c2.1,30.8,20,71.1,32.7,89.6
			c3.5,5,9.2,13.1,13.7,18.6c28.3,35.1,47.9,77.5,55.5,123.9c2.4,14.3,3.6,28.9,3.6,43.9c0,147.9-119.9,267.8-267.7,267.8
			c-53.7,0-103.7-15.8-145.6-43C133.2,611,85.5,532.4,82.1,442.5v-0.2C82.6,422.4,84,402.7,86.4,383.3z M165.3,432.2
			c0,102.2,82.9,185.1,185.1,185.1c102.2,0,185.1-82.9,185.1-185.1c0-42.6-14.3-81.8-38.5-113l0,0c-4.4-5.8-27.2-33.1-32.4-42.3
			c-17-29.6-30.5-63.8-34.7-100.2c-1.1-9.6-1.4-22.9-2.4-31.1c-4.6-37.4-38.7-63.1-77.8-63.1c-24.3,0-46,10.8-60.6,27.9
			c-0.1,0.2-0.3,0.4-0.4,0.5c-0.4,0.4-0.7,0.8-1,1.2c-0.7,0.8-1.3,1.6-1.9,2.4c-19.5,23.8-36.9,49.4-52.1,76.3
			c-9.3,16.6-17.8,33.7-25.3,51.3c-22.5,52.2-36.8,108.7-41.7,167.9c-0.9,6.9-1.3,14-1.3,21.2V432.2z"/>
	</g>
	<circle class="st0" cx="348.2" cy="432.3" r="64.2"/>
</g>
</svg>
