<svg id="Layer_1" data-name="Layer 1" xmlns="http://www.w3.org/2000/svg" viewBox="0 0 406.08 152.75"><title>logo-gris</title><path d="M147.86,346.09a114.24,114.24,0,0,1,22.59-55.65q3.18-4.2,6.75-8.08a29.88,29.88,0,0,1,38.37-.1,30.91,30.91,0,0,1,10.81,21.93c.38,5.68,3.68,13.11,6,16.54.64.93,1.69,2.43,2.53,3.43A49.41,49.41,0,1,1,147.07,357v0Q147.22,351.47,147.86,346.09Zm14.57,9a34.16,34.16,0,1,0,61.21-20.85h0c-.82-1.06-5-6.11-6-7.8a48.79,48.79,0,0,1-6.4-18.48c-.2-1.78-.25-4.23-.44-5.75-.85-6.9-7.15-11.65-14.35-11.65a14.7,14.7,0,0,0-11.19,5.15l-.08.1L185,296c-.13.16-.25.3-.36.45A98.61,98.61,0,0,0,175,310.58a101.26,101.26,0,0,0-4.67,9.46,98.78,98.78,0,0,0-7.69,31,33.64,33.64,0,0,0-.25,3.91Z" transform="translate(-147.07 -275.35)" style="fill:#d93f42"/><circle cx="49.11" cy="79.77" r="11.85" style="fill:#d93f42"/><path d="M288.81,424.25a1.88,1.88,0,0,1-.76,2.51,11.31,11.31,0,0,1-5.31,1.34,11.13,11.13,0,0,1,0-22.25,11.31,11.31,0,0,1,5.31,1.34,1.86,1.86,0,1,1-1.78,3.27,7.15,7.15,0,0,0-3.53-.89,7.41,7.41,0,0,0,0,14.81,7.15,7.15,0,0,0,3.53-.89A1.88,1.88,0,0,1,288.81,424.25Z" transform="translate(-147.07 -275.35)" style="fill:#4a4d56"/><path d="M312.42,425.56a1.88,1.88,0,0,1,.12.7,1.82,1.82,0,0,1-1.84,1.84,1.84,1.84,0,0,1-1.71-1.18l-1.4-3.46H299l-1.39,3.46a1.84,1.84,0,0,1-3.56-.66,1.78,1.78,0,0,1,.12-.7L301.55,407a1.86,1.86,0,0,1,3.46,0Zm-6.33-5.79-2.79-7.09-2.83,7.09Z" transform="translate(-147.07 -275.35)" style="fill:#4a4d56"/><path d="M331.64,425.27a1.88,1.88,0,0,1,.28,1,1.81,1.81,0,0,1-.89,1.55,1.74,1.74,0,0,1-.95.29,1.89,1.89,0,0,1-1.59-.86l-4.1-6.55h-3.11v5.57a1.88,1.88,0,0,1-1.88,1.84,1.84,1.84,0,0,1-1.84-1.84V407.69a1.84,1.84,0,0,1,1.84-1.84h5.05a9,9,0,0,1,3.63.89,6.87,6.87,0,0,1,3.84,6.52,8.83,8.83,0,0,1-.89,3.62,6.69,6.69,0,0,1-2.79,2.92ZM321.28,417h3.17a3.25,3.25,0,0,0,3.21-1.69,4.94,4.94,0,0,0,.54-2,3.2,3.2,0,0,0-1.78-3.21,4.9,4.9,0,0,0-2-.48h-3.17Z" transform="translate(-147.07 -275.35)" style="fill:#4a4d56"/><path d="M351.27,427.3l-9.6-13.73v12.69a1.87,1.87,0,0,1-1.87,1.84,1.85,1.85,0,0,1-1.85-1.84V407.69a1.85,1.85,0,0,1,1.88-1.84,1.83,1.83,0,0,1,1.49.8l9.6,13.73V407.69a1.86,1.86,0,0,1,3.72,0v18.57a1.87,1.87,0,0,1-1.85,1.84A1.84,1.84,0,0,1,351.27,427.3Z" transform="translate(-147.07 -275.35)" style="fill:#4a4d56"/><path d="M375,426.26a1.86,1.86,0,0,1-1.88,1.84H363a1.85,1.85,0,0,1-1.87-1.84V407.69a1.85,1.85,0,0,1,1.87-1.84h10.17a1.86,1.86,0,1,1,0,3.72H364.8v5.56h6.49a1.85,1.85,0,0,1,0,3.69H364.8v5.56h8.33A1.87,1.87,0,0,1,375,426.26Z" transform="translate(-147.07 -275.35)" style="fill:#4a4d56"/><path d="M409.14,425.56a1.71,1.71,0,0,1,.13.7,1.84,1.84,0,0,1-3.56.66l-1.4-3.46H395.7l-1.4,3.46a1.84,1.84,0,0,1-3.56-.66,1.62,1.62,0,0,1,.13-.7l7.4-18.53a1.87,1.87,0,0,1,3.47,0Zm-6.32-5.79-2.8-7.09-2.83,7.09Z" transform="translate(-147.07 -275.35)" style="fill:#4a4d56"/><path d="M416.16,428.1a1.86,1.86,0,0,1-1.88-1.84V407.69a1.86,1.86,0,0,1,3.72,0v16.69h6.48a1.86,1.86,0,1,1,0,3.72Z" transform="translate(-147.07 -275.35)" style="fill:#4a4d56"/><path d="M452.43,405.85a1.86,1.86,0,1,1,0,3.72h-3.69v16.69a1.87,1.87,0,0,1-1.87,1.84,1.85,1.85,0,0,1-1.85-1.84V409.57h-3.71a1.86,1.86,0,0,1,0-3.72Z" transform="translate(-147.07 -275.35)" style="fill:#4a4d56"/><path d="M457.68,417a10.67,10.67,0,1,1,10.65,11.12A10.9,10.9,0,0,1,457.68,417Zm3.72,0a7,7,0,1,0,6.93-7.41A7.18,7.18,0,0,0,461.4,417Z" transform="translate(-147.07 -275.35)" style="fill:#4a4d56"/><path d="M504,425.05a1.85,1.85,0,0,1,.45,1.17,1.89,1.89,0,0,1-.67,1.43,1.77,1.77,0,0,1-1.21.45,1.9,1.9,0,0,1-1.43-.67l-.82-1a10,10,0,0,1-5.63,1.69A11.13,11.13,0,1,1,505.36,417,11.54,11.54,0,0,1,503,423.9Zm-6.07-1.5-1.39-1.68a2,2,0,0,1-.45-1.21,1.74,1.74,0,0,1,.67-1.4,1.82,1.82,0,0,1,2.6.23l1.21,1.46a7.59,7.59,0,0,0,1.08-4,7,7,0,1,0-7,7.4A6.62,6.62,0,0,0,497.92,423.55Z" transform="translate(-147.07 -275.35)" style="fill:#4a4d56"/><path d="M512,423.78a10.64,10.64,0,0,1-.93-4V407.69a1.85,1.85,0,0,1,3.69,0v12.05c0,.48.38,4.64,4.2,4.64,3.62,0,4.16-3.91,4.16-4.64V407.69a1.85,1.85,0,0,1,3.69,0v12.05a10.23,10.23,0,0,1-.89,4,7.77,7.77,0,0,1-13.92,0Z" transform="translate(-147.07 -275.35)" style="fill:#4a4d56"/><path d="M547.07,426.26a1.85,1.85,0,0,1-1.87,1.84H535a1.86,1.86,0,0,1-1.88-1.84V407.69a1.86,1.86,0,0,1,1.88-1.84H545.2a1.86,1.86,0,1,1,0,3.72h-8.33v5.56h6.48a1.85,1.85,0,1,1,0,3.69h-6.48v5.56h8.33A1.86,1.86,0,0,1,547.07,426.26Z" transform="translate(-147.07 -275.35)" style="fill:#4a4d56"/><path d="M493.12,329.34l-12.86.06a2.2,2.2,0,0,0-2,1.29l-11.35,25.05a2.19,2.19,0,0,1-4-.06l-10.5-25a2.19,2.19,0,0,0-2-1.35H437.7a2.19,2.19,0,0,0-2,3l20.68,49.28a2.21,2.21,0,0,0,2,1.35l12.46-.07a2.21,2.21,0,0,0,2-1.29l22.29-49.2A2.19,2.19,0,0,0,493.12,329.34Z" transform="translate(-147.07 -275.35)" style="fill:#4a4d56"/><path d="M433.49,355.22a2.35,2.35,0,0,0,0-.26,28.32,28.32,0,1,0-16.21,25.62v.4a2.14,2.14,0,0,0,2.14,2.15h11.94a2.15,2.15,0,0,0,2.15-2.15V355.55A1.84,1.84,0,0,0,433.49,355.22Zm-29.16,11.83a12.12,12.12,0,1,1,13-12.09A12.18,12.18,0,0,1,404.33,367.05Z" transform="translate(-147.07 -275.35)" style="fill:#4a4d56"/><path d="M299.71,383.26C283.18,384,269.56,371,269.56,355c0-.12,0-.25,0-.37v0a1.21,1.21,0,0,1,0-.19V313.92a2.18,2.18,0,0,1,2.19-2.16h12.13a2.18,2.18,0,0,1,2.19,2.16v15.41a29,29,0,0,1,12.32-2.72c16.39,0,29.58,13.45,28.79,29.73A28.66,28.66,0,0,1,299.71,383.26Zm-.27-40.38a12.28,12.28,0,0,0-13.37,11.33c0,.12,0,.25,0,.37v0c0,.11,0,.23,0,.34a12.34,12.34,0,1,0,13.39-12.07Z" transform="translate(-147.07 -275.35)" style="fill:#4a4d56"/><path d="M525.74,326.63a28.34,28.34,0,1,0,27.4,27.4A28.35,28.35,0,0,0,525.74,326.63Zm0,40.16a11.87,11.87,0,1,1,10.87-10.87A11.87,11.87,0,0,1,525.77,366.79Z" transform="translate(-147.07 -275.35)" style="fill:#4a4d56"/><path d="M375.46,337.14a2.18,2.18,0,0,0-.3-3.07,21.62,21.62,0,0,0-24.78-1.64v-1a2.16,2.16,0,0,0-2.16-2.16H336.29a2.17,2.17,0,0,0-2.16,2.15v47.15a2.18,2.18,0,0,0,2.16,2.16h11.93a2.17,2.17,0,0,0,2.16-2.16V352.28a8.31,8.31,0,0,1,9.07-8.28,8,8,0,0,1,5.1,2.54,2.1,2.1,0,0,0,3.17,0Z" transform="translate(-147.07 -275.35)" style="fill:#4a4d56"/></svg>