<svg xmlns="http://www.w3.org/2000/svg" viewBox="0 0 284.17 258.9"><title>Asset 1</title><g id="Layer_2" data-name="Layer 2"><g id="Capa_1" data-name="Capa 1"><path d="M19.29,255.05a1.88,1.88,0,0,1-.76,2.51,11.38,11.38,0,0,1-5.32,1.34,11.15,11.15,0,1,1,0-22.29,11.37,11.37,0,0,1,5.32,1.33,1.87,1.87,0,1,1-1.79,3.28,7.15,7.15,0,0,0-3.53-.89,7.42,7.42,0,1,0,0,14.84,7,7,0,0,0,3.53-.89A1.88,1.88,0,0,1,19.29,255.05Z" style="fill:#fff"/><path d="M43,256.35a1.91,1.91,0,0,1,.12.7,1.82,1.82,0,0,1-1.84,1.85,1.84,1.84,0,0,1-1.72-1.18l-1.41-3.47H29.47l-1.4,3.47a1.84,1.84,0,0,1-3.56-.67,1.81,1.81,0,0,1,.12-.7l7.42-18.56a1.87,1.87,0,0,1,3.48,0Zm-6.34-5.8-2.81-7.1L31,250.55Z" style="fill:#fff"/><path d="M62.2,256.06a1.89,1.89,0,0,1,.29,1,1.84,1.84,0,0,1-.89,1.56,1.79,1.79,0,0,1-1,.29,1.89,1.89,0,0,1-1.59-.86l-4.11-6.56H51.82v5.57a1.88,1.88,0,0,1-1.88,1.85,1.85,1.85,0,0,1-1.85-1.85v-18.6a1.84,1.84,0,0,1,1.85-1.84H55a9,9,0,0,1,3.63.89A6.89,6.89,0,0,1,62.49,244a8.86,8.86,0,0,1-.89,3.63,6.85,6.85,0,0,1-2.8,2.93Zm-10.38-8.31H55a3.23,3.23,0,0,0,3.21-1.69,4.94,4.94,0,0,0,.54-2A3.21,3.21,0,0,0,57,240.81a4.93,4.93,0,0,0-2-.48H51.82Z" style="fill:#fff"/><path d="M81.87,258.1l-9.61-13.76v12.71a1.88,1.88,0,0,1-1.88,1.85,1.85,1.85,0,0,1-1.85-1.85v-18.6a1.86,1.86,0,0,1,1.88-1.84,1.83,1.83,0,0,1,1.5.79l9.61,13.76V238.45a1.87,1.87,0,0,1,3.73,0v18.6a1.85,1.85,0,0,1-3.38,1.05Z" style="fill:#fff"/><path d="M105.66,257.05a1.86,1.86,0,0,1-1.88,1.85H93.59a1.86,1.86,0,0,1-1.88-1.85v-18.6a1.85,1.85,0,0,1,1.88-1.84h10.19a1.86,1.86,0,1,1,0,3.72H95.44v5.57h6.5a1.85,1.85,0,0,1,0,3.7h-6.5v5.57h8.34A1.87,1.87,0,0,1,105.66,257.05Z" style="fill:#fff"/><path d="M139.86,256.35a1.74,1.74,0,0,1,.13.7,1.84,1.84,0,0,1-3.56.67L135,254.25h-8.63l-1.4,3.47a1.85,1.85,0,0,1-3.57-.67,1.82,1.82,0,0,1,.13-.7L129,237.79a1.9,1.9,0,0,1,1.75-1.18,1.87,1.87,0,0,1,1.72,1.18Zm-6.33-5.8-2.81-7.1-2.83,7.1Z" style="fill:#fff"/><path d="M146.89,258.9a1.86,1.86,0,0,1-1.88-1.85v-18.6a1.87,1.87,0,0,1,3.73,0v16.72h6.5a1.87,1.87,0,1,1,0,3.73Z" style="fill:#fff"/><path d="M183.24,236.61a1.86,1.86,0,1,1,0,3.72h-3.69v16.72a1.88,1.88,0,0,1-1.88,1.85,1.85,1.85,0,0,1-1.85-1.85V240.33h-3.73a1.86,1.86,0,0,1,0-3.72Z" style="fill:#fff"/><path d="M188.5,247.75a10.69,10.69,0,1,1,10.67,11.15A10.92,10.92,0,0,1,188.5,247.75Zm3.73,0a7,7,0,1,0,6.94-7.42A7.19,7.19,0,0,0,192.23,247.75Z" style="fill:#fff"/><path d="M234.91,255.84a1.82,1.82,0,0,1-.22,2.61,1.79,1.79,0,0,1-1.21.45,1.92,1.92,0,0,1-1.44-.67l-.83-1a10.11,10.11,0,0,1-5.63,1.69,11.15,11.15,0,1,1,10.7-11.15,11.54,11.54,0,0,1-2.33,6.94Zm-6.08-1.5-1.4-1.68a2,2,0,0,1-.45-1.21,1.72,1.72,0,0,1,.67-1.4,1.85,1.85,0,0,1,1.18-.45,1.89,1.89,0,0,1,1.43.67l1.21,1.46a7.58,7.58,0,0,0,1.08-4,7,7,0,1,0-7,7.42A6.58,6.58,0,0,0,228.83,254.34Z" style="fill:#fff"/><path d="M242.91,254.57a10.64,10.64,0,0,1-.93-4V238.45a1.85,1.85,0,0,1,3.7,0v12.07c0,.48.38,4.65,4.2,4.65,3.63,0,4.17-3.92,4.17-4.65V238.45a1.85,1.85,0,0,1,3.7,0v12.07a10.24,10.24,0,0,1-.89,4,7.78,7.78,0,0,1-14,0Z" style="fill:#fff"/><path d="M278.07,257.05a1.85,1.85,0,0,1-1.87,1.85H266a1.86,1.86,0,0,1-1.88-1.85v-18.6a1.85,1.85,0,0,1,1.88-1.84h10.2a1.86,1.86,0,1,1,0,3.72h-8.35v5.57h6.5a1.85,1.85,0,0,1,0,3.7h-6.5v5.57h8.35A1.86,1.86,0,0,1,278.07,257.05Z" style="fill:#fff"/><path d="M89.2,70.88a114.45,114.45,0,0,1,22.63-55.76Q115,10.91,118.6,7a30.05,30.05,0,0,1,28.83-5.47,30.2,30.2,0,0,1,9.62,5.37,30.94,30.94,0,0,1,10.83,22c.38,5.7,3.69,13.14,6.05,16.58.65.93,1.7,2.43,2.54,3.43A49.52,49.52,0,1,1,88.41,81.83v0Q88.56,76.27,89.2,70.88Z" style="fill:#fff"/><path d="M103.8,79.93A34.23,34.23,0,1,0,165.13,59h0c-.82-1.07-5-6.12-6-7.82a48.76,48.76,0,0,1-6.41-18.52c-.2-1.78-.25-4.24-.44-5.76-.86-6.91-7.16-11.67-14.38-11.67a14.72,14.72,0,0,0-11.21,5.16l-.08.1c-.07.07-.12.14-.18.21l-.35.45a98.21,98.21,0,0,0-9.63,14.12,99.23,99.23,0,0,0-12.39,40.54,33.64,33.64,0,0,0-.25,3.91Z" style="fill:#bd4144"/><circle cx="137.62" cy="79.94" r="11.88" style="fill:#fff"/><path d="M224,159.94l-12.9.06a2.18,2.18,0,0,0-2,1.29l-11.38,25.1a2.2,2.2,0,0,1-4,0l-10.52-25.07a2.19,2.19,0,0,0-2-1.35H168.48a2.19,2.19,0,0,0-2,3.05l20.72,49.38a2.19,2.19,0,0,0,2,1.34l12.48-.06a2.21,2.21,0,0,0,2-1.29L226,163A2.19,2.19,0,0,0,224,159.94Z" style="fill:#fff"/><path d="M164.26,185.87a2.26,2.26,0,0,0,0-.26A28.39,28.39,0,1,0,148,211.28v.4a2.15,2.15,0,0,0,2.15,2.16h11.95a2.17,2.17,0,0,0,2.17-2.16V186.2A1.24,1.24,0,0,0,164.26,185.87Zm-29.21,11.85a12.14,12.14,0,1,1,13-12.11A12.21,12.21,0,0,1,135.05,197.72Z" style="fill:#fff"/><path d="M30.21,214C13.65,214.7,0,201.72,0,185.6c0-.12,0-.25,0-.37v0A1.15,1.15,0,0,1,0,185V144.49a2.17,2.17,0,0,1,2.2-2.16H14.35a2.18,2.18,0,0,1,2.2,2.16v15.44a29.07,29.07,0,0,1,12.34-2.73c16.42,0,29.64,13.48,28.85,29.79C57,201.53,45,213.32,30.21,214Zm-.27-40.47a12.3,12.3,0,0,0-13.39,11.36c0,.12,0,.25,0,.37v0c0,.11,0,.23,0,.34a12.36,12.36,0,1,0,13.41-12.1Z" style="fill:#fff"/><path d="M256.7,157.22a28.4,28.4,0,1,0,27.45,27.46A28.41,28.41,0,0,0,256.7,157.22Zm0,40.25a11.9,11.9,0,1,1,10.9-10.9A11.9,11.9,0,0,1,256.73,197.47Z" style="fill:#fff"/><path d="M106.11,167.76a2.18,2.18,0,0,0-.29-3.08A21.68,21.68,0,0,0,81,163v-1a2.17,2.17,0,0,0-2.17-2.16H66.87A2.16,2.16,0,0,0,64.71,162v47.24a2.16,2.16,0,0,0,2.16,2.16H78.82A2.17,2.17,0,0,0,81,209.23V182.92a8.33,8.33,0,0,1,9.09-8.29,8.08,8.08,0,0,1,5.1,2.55,2.12,2.12,0,0,0,3.18,0Z" style="fill:#fff"/></g></g></svg>