<svg xmlns="http://www.w3.org/2000/svg" viewBox="0 0 284.17 214.01"><title>Asset 1</title><g id="Layer_2" data-name="Layer 2"><g id="Capa_1" data-name="Capa 1"><path d="M89.2,70.88a114.45,114.45,0,0,1,22.63-55.76Q115,10.91,118.6,7a30.05,30.05,0,0,1,28.83-5.47,30.2,30.2,0,0,1,9.62,5.37,30.94,30.94,0,0,1,10.83,22c.38,5.7,3.69,13.14,6.05,16.58.65.93,1.7,2.43,2.54,3.43A49.52,49.52,0,1,1,88.41,81.83v0Q88.56,76.27,89.2,70.88Z" style="fill:#fff"/><path d="M103.8,79.93A34.23,34.23,0,1,0,165.13,59h0c-.82-1.07-5-6.12-6-7.82a48.76,48.76,0,0,1-6.41-18.52c-.2-1.78-.25-4.24-.44-5.76-.86-6.91-7.16-11.67-14.38-11.67a14.72,14.72,0,0,0-11.21,5.16l-.08.1c-.07.07-.12.14-.18.21l-.35.45a98.21,98.21,0,0,0-9.63,14.12,99.23,99.23,0,0,0-12.39,40.54,33.64,33.64,0,0,0-.25,3.91Z" style="fill:#bd4144"/><circle cx="137.62" cy="79.94" r="11.88" style="fill:#fff"/><path d="M224,159.94l-12.9.06a2.18,2.18,0,0,0-2,1.29l-11.38,25.1a2.2,2.2,0,0,1-4,0l-10.52-25.07a2.19,2.19,0,0,0-2-1.35H168.48a2.19,2.19,0,0,0-2,3.05l20.72,49.38a2.19,2.19,0,0,0,2,1.34l12.48-.06a2.21,2.21,0,0,0,2-1.29L226,163A2.19,2.19,0,0,0,224,159.94Z" style="fill:#fff"/><path d="M164.26,185.87a2.26,2.26,0,0,0,0-.26A28.39,28.39,0,1,0,148,211.28v.4a2.15,2.15,0,0,0,2.15,2.16h11.95a2.17,2.17,0,0,0,2.17-2.16V186.2A1.24,1.24,0,0,0,164.26,185.87Zm-29.21,11.85a12.14,12.14,0,1,1,13-12.11A12.21,12.21,0,0,1,135.05,197.72Z" style="fill:#fff"/><path d="M30.21,214C13.65,214.7,0,201.72,0,185.6c0-.12,0-.25,0-.37v0A1.15,1.15,0,0,1,0,185V144.49a2.17,2.17,0,0,1,2.2-2.16H14.35a2.18,2.18,0,0,1,2.2,2.16v15.44a29.07,29.07,0,0,1,12.34-2.73c16.42,0,29.64,13.48,28.85,29.79C57,201.53,45,213.32,30.21,214Zm-.27-40.47a12.3,12.3,0,0,0-13.39,11.36c0,.12,0,.25,0,.37v0c0,.11,0,.23,0,.34a12.36,12.36,0,1,0,13.41-12.1Z" style="fill:#fff"/><path d="M256.7,157.22a28.4,28.4,0,1,0,27.45,27.46A28.41,28.41,0,0,0,256.7,157.22Zm0,40.25a11.9,11.9,0,1,1,10.9-10.9A11.9,11.9,0,0,1,256.73,197.47Z" style="fill:#fff"/><path d="M106.11,167.76a2.18,2.18,0,0,0-.29-3.08A21.68,21.68,0,0,0,81,163v-1a2.17,2.17,0,0,0-2.17-2.16H66.87A2.16,2.16,0,0,0,64.71,162v47.24a2.16,2.16,0,0,0,2.16,2.16H78.82A2.17,2.17,0,0,0,81,209.23V182.92a8.33,8.33,0,0,1,9.09-8.29,8.08,8.08,0,0,1,5.1,2.55,2.12,2.12,0,0,0,3.18,0Z" style="fill:#fff"/></g></g></svg>